<?xml version="1.0" encoding="UTF-8"?>
<!DOCTYPE svg PUBLIC "-//W3C//DTD SVG 1.1//EN" "http://www.w3.org/Graphics/SVG/1.1/DTD/svg11.dtd">
<!-- Creator: CorelDRAW -->
<svg xmlns="http://www.w3.org/2000/svg" xml:space="preserve" width="0.516795in" height="0.34678in" style="shape-rendering:geometricPrecision; text-rendering:geometricPrecision; image-rendering:optimizeQuality; fill-rule:evenodd; clip-rule:evenodd"
viewBox="0 0 0.191591 0.128561"
 xmlns:xlink="http://www.w3.org/1999/xlink">
 <defs>
  <style type="text/css">
   <![CDATA[
    .fil0 {fill:white;fill-rule:nonzero}
   ]]>
  </style>
 </defs>
 <g id="Layer_x0020_1">
  <metadata id="CorelCorpID_0Corel-Layer"/>
  <g>
   <path class="fil0" d="M0.146719 0.0206878l0.00176899 0.0101381 -0.00547627 0.00102899 -0.00542956 0.00120268 -0.00537848 0.00132966 -0.00534637 0.00147853 -0.00527047 0.00162449 -0.00521209 0.00176753 -0.00517122 0.00189159 -0.00508657 0.00205068 -0.00504278 0.00216891 -0.00495229 0.00230756 -0.00490266 0.00244038 -0.00482677 0.00257466 -0.00475087 0.00268559 -0.00467351 0.00283593 -0.00459178 0.00294101 -0.0045261 0.003068 -0.00441955 0.00319206 -0.00435095 0.00331466 -0.00423856 0.00343435 -0.00416413 0.00353214 -0.00406779 0.00365036 -0.00396563 0.00378464 -0.00386492 0.00387659 -0.00375983 0.00398752 -0.00365182 0.00407801 -0.00356279 0.00420645 -0.00342851 0.00431008 -0.0033351 0.00439328 -0.00321541 0.00449691 -0.00309573 0.00461513 -0.00297312 0.00469687 -0.00286512 0.00476984 -0.00889164 -0.00510846 0.00298772 -0.005053 0.00313368 -0.00493623 0.00325628 -0.00481655 0.00337596 -0.00473919 0.00349565 -0.00463556 0.00362993 -0.0045115 0.00372334 -0.00440495 0.00385324 -0.0043203 0.00396125 -0.00418894 0.00406634 -0.00407801 0.00416704 -0.00394519 0.00426921 -0.00385178 0.00436554 -0.00373356 0.00447793 -0.0035949 0.00455237 -0.00347521 0.00466184 -0.00335261 0.00472752 -0.00322855 0.00483406 -0.00310448 0.00491288 -0.00295561 0.00499316 -0.00284614 0.00506905 -0.00269435 0.00514203 -0.00256299 0.00523544 -0.00242725 0.00528215 -0.00228859 0.00536972 -0.00213242 0.00541351 -0.00201127 0.00549233 -0.00184926 0.00555363 -0.00170331 0.00558574 -0.00156027 0.00566163 -0.00141139 0.0057098 -0.00124063 0.00575942 -0.00111073zm-0.00795898 -0.0206878l0.0528302 0.0180095 -0.0434964 0.0349784 -0.00933389 -0.0529879z"/>
  </g>
 </g>
</svg>
